<svg xmlns="http://www.w3.org/2000/svg" viewBox="0 0 140 140" fill="none">
  <g stroke="#957047" stroke-width="1.8" stroke-linecap="round" stroke-linejoin="round">
    <path d="M13 121V20c0-4 3-7 7-7h101"/>
    <path d="M25 97V31c0-3 3-6 6-6h66"/>
    <path d="M13 77c24-3 39-18 42-42 4 24 18 39 42 42-24 4-38 18-42 42-3-24-18-39-42-42Z" opacity=".55"/>
    <path d="M55 59v36M37 77h36"/>
    <path d="M99 25c-14 13-13 28 0 39-20-2-28-23-16-39" opacity=".7"/>
    <circle cx="102" cy="101" r="17" opacity=".5"/>
    <path d="m102 92 3 9-3 9-3-9 3-9Zm-9 9h18" opacity=".7"/>
  </g>
  <g fill="#a67b48">
    <path d="m120 21 3 7 7 3-7 3-3 7-3-7-7-3 7-3Z"/>
    <circle cx="31" cy="107" r="2"/>
    <circle cx="68" cy="17" r="2"/>
  </g>
</svg>
