<svg xmlns="http://www.w3.org/2000/svg" viewBox="0 0 620 400" fill="none"><g stroke="#74523b" stroke-width="3" stroke-linecap="round" stroke-linejoin="round"><path d="M48 325h536M73 340h486" opacity=".7"/><path d="M95 302h398l42-32-18-20h-75l-14-108H252l-26 118H95z" fill="#4f3440"/><path d="M247 141h178l-11 104H230z" fill="#6c3542"/><path d="M262 153h59v71h-77zM335 153h69l7 71h-76z" fill="#e9d5a5" stroke="#b8915e"/><path d="M107 261h373M99 281h420" stroke="#c7a66f"/><path d="M113 251V144h72v107M95 143h109M127 142v-38h45v38M136 103V80h27v23" fill="#573743"/><path d="M172 199h63M428 173h47l15 75h-48M476 198h41" stroke="#c7a66f"/><circle cx="162" cy="305" r="30" fill="#302930" stroke="#bd9b68" stroke-width="6"/><circle cx="162" cy="305" r="11" fill="#bd9b68"/><circle cx="291" cy="305" r="30" fill="#302930" stroke="#bd9b68" stroke-width="6"/><circle cx="291" cy="305" r="11" fill="#bd9b68"/><circle cx="410" cy="305" r="30" fill="#302930" stroke="#bd9b68" stroke-width="6"/><circle cx="410" cy="305" r="11" fill="#bd9b68"/><path d="M91 250l-30 22v23h36M518 270l30 20v18h-23" fill="#623e47"/><path d="M139 74c-30-18-5-41 14-51M191 86c-27-20 0-43 18-57M248 97c-24-19 0-41 15-50" opacity=".55"/><path d="M64 331l45-8m45 12l56-7m50 9l52-8m45 9l66-9m48 10l54-8" opacity=".55"/></g><g fill="#bd9b68"><path d="M544 77l5 12 12 5-12 5-5 12-5-12-12-5 12-5z"/><path d="M482 43l3 7 7 3-7 3-3 7-3-7-7-3 7-3z"/></g><text x="300" y="118" fill="#cfae76" font-family="Georgia" font-size="15" letter-spacing="5">HOGWARTS EXPRESS</text></svg>
